<svg xmlns="http://www.w3.org/2000/svg" viewBox="0 0 256 256" enable-background="new 0 0 256 256"><style type="text/css">.st0{fill:#4F9BD5;}</style><path class="st0" d="M39.6 109.8s-1.9-4.5-1.9-10 1.9-10 1.9-10c-.3 0-37.6 10-37.6 10s37.3 10 37.6 10zM216.4 89.8s1.9 4.5 1.9 10-1.9 10-1.9 10c.3 0 37.6-10 37.6-10s-37.3-10-37.6-10z"/><circle class="st0" cx="89.4" cy="99.2" r="11.3"/><path class="st0" d="M196.9 85.3c1.5 0 2.6 1.2 2.6 2.6v23.7c0 1.4-1.2 2.6-2.6 2.6h-137.8c-1.5 0-2.6-1.2-2.6-2.6v-23.7c0-1.5 1.2-2.6 2.6-2.6h137.8m0-13.5h-137.8c-8.9 0-16.1 7.2-16.1 16.1v23.7c0 8.9 7.2 16.1 16.2 16.1h137.8c8.9 0 16.2-7.2 16.2-16.1v-23.7c-.1-8.9-7.4-16.1-16.3-16.1zM127 168.5c-20.4 0-37.6 30.8-37.6 67.3 0 4.2.2 8.2.7 12.2 10.5 3.3 23.2 5.3 37 5.3s26.5-2 37-5.3c.4-4 .7-8 .7-12.2-.1-36.5-17.4-67.3-37.8-67.3zm-22.7 65.7c0 2.5-2 4.5-4.4 4.5-2.5 0-4.5-2-4.5-4.5v-15.5c0-2.5 2-4.5 4.5-4.5s4.4 2 4.4 4.5v15.5zm17.9 0c0 2.5-2 4.5-4.5 4.5s-4.5-2-4.5-4.5v-15.5c0-2.5 2-4.5 4.5-4.5s4.5 2 4.5 4.5v15.5zm17.9 0c0 2.5-2 4.5-4.5 4.5s-4.5-2-4.5-4.5v-15.5c0-2.5 2-4.5 4.5-4.5s4.5 2 4.5 4.5v15.5zm17.9 0c0 2.5-2 4.5-4.5 4.5s-4.5-2-4.5-4.5v-15.5c0-2.5 2-4.5 4.5-4.5s4.5 2 4.5 4.5v15.5zM62.9 116.3v11.5h93c1.7 0 3.1 1.4 3.1 3.1 0 1.7-1.4 3.1-3.1 3.1h-93v90.5c0 7.7 6.8 14.7 17.9 19.8-.2-2.8-.3-5.7-.3-8.6 0-42.7 20.4-76.2 46.5-76.2s46.5 33.5 46.5 76.2c0 2.9-.1 5.8-.3 8.6 11.1-5.1 17.9-12.1 17.9-19.8v-108.2h-128.2zM127 58.1c-2.2 0-4.1-1.8-4.1-4.1 0-2.2 1.8-4.1 4.1-4.1h63.6c-.7-2.3-1.6-4.4-2.5-6.6h-37.8c-3.7 0-6.8-3-6.8-6.8s3-6.8 6.8-6.8h30c-12.2-16.4-31.5-26.8-53.3-26.8-34.2 0-62.3 25.5-66.6 60.3h133.1c-.2-1.7-.5-3.5-.9-5.2l-65.6.1zm4.7-28.5c3.9 0 7.1 3.2 7.1 7.1 0 3.9-3.2 7.1-7.1 7.1-3.9 0-7.1-3.2-7.1-7.1 0-4 3.2-7.1 7.1-7.1z"/></svg>