<?xml version="1.0" encoding="utf-8"?>
<!-- Generator: Adobe Illustrator 18.1.1, SVG Export Plug-In . SVG Version: 6.00 Build 0)  -->
<!DOCTYPE svg PUBLIC "-//W3C//DTD SVG 1.1//EN" "http://www.w3.org/Graphics/SVG/1.1/DTD/svg11.dtd">
<svg version="1.1" id="Layer_1" xmlns="http://www.w3.org/2000/svg" xmlns:xlink="http://www.w3.org/1999/xlink" x="0px" y="0px"
	 viewBox="0 0 241.8 256" style="enable-background:new 0 0 241.8 256;" xml:space="preserve">
<style type="text/css">
	.st0{fill:#FFFFFF;}
</style>
<g>
	<circle class="st0" cx="142.9" cy="17.6" r="4.6"/>
	<circle class="st0" cx="100" cy="17.6" r="4.6"/>
	<circle class="st0" cx="142.9" cy="57.5" r="4.6"/>
	<circle class="st0" cx="100" cy="57.5" r="4.6"/>
	<path class="st0" d="M142.9,2.2H100c-8.5,0-15.3,6.9-15.3,15.3v39.9c0,8.5,6.9,15.3,15.3,15.3h0.5h41.9c8.5,0,15.8-6.9,15.8-15.3
		V17.6C158.3,9.1,151.4,2.2,142.9,2.2z M142.9,8.4c5.1,0,9.2,4.1,9.2,9.2s-4.1,9.2-9.2,9.2s-9.2-4.1-9.2-9.2S137.8,8.4,142.9,8.4z
		 M100,8.4c5.1,0,9.2,4.1,9.2,9.2s-4.1,9.2-9.2,9.2c-5.1,0-9.2-4.1-9.2-9.2S94.9,8.4,100,8.4z M100,66.7c-5.1,0-9.2-4.1-9.2-9.2
		s4.1-9.2,9.2-9.2c5.1,0,9.2,4.1,9.2,9.2S105.1,66.7,100,66.7z M142.9,66.7c-5.1,0-9.2-4.1-9.2-9.2s4.1-9.2,9.2-9.2s9.2,4.1,9.2,9.2
		S148,66.7,142.9,66.7z"/>
	<path class="st0" d="M69.3,244.6c0,5.1,4.1,9.2,9.2,9.2s9.2-4.1,9.2-9.2v-46H69.3V244.6z"/>
	<path class="st0" d="M155.2,244.6c0,5.1,4.1,9.2,9.2,9.2s9.2-4.1,9.2-9.2v-46h-18.4V244.6z"/>
	<path class="st0" d="M97.9,244.6c0,5.1,4.1,9.2,9.2,9.2s9.2-4.1,9.2-9.2v-46H97.9V244.6z"/>
	<path class="st0" d="M126.6,244.6c0,5.1,4.1,9.2,9.2,9.2s9.2-4.1,9.2-9.2v-46h-18.4V244.6z"/>
	<path class="st0" d="M35.6,158.7v33.7l9.2-9.2l9.2,9.2v-33.7c0-5.1,4.1-9.2,9.2-9.2v-18.4C47.9,131.1,35.6,143.4,35.6,158.7z"/>
	<path class="st0" d="M69.3,192.4V88.1c0-3.4,2.8-6.1,6.1-6.1h92c3.4,0,6.1,2.8,6.1,6.1v104.3H69.3z M96.9,105
		c0-2.5-2.1-4.6-4.6-4.6s-4.6,2.1-4.6,4.6v39.9c0,2.5,2.1,4.6,4.6,4.6s4.6-2.1,4.6-4.6V105z M116.3,105c0-2.5-2.1-4.6-4.6-4.6
		c-2.5,0-4.6,2.1-4.6,4.6v39.9c0,2.5,2.1,4.6,4.6,4.6c2.5,0,4.6-2.1,4.6-4.6V105z M135.8,105c0-2.5-2.1-4.6-4.6-4.6
		c-2.5,0-4.6,2.1-4.6,4.6v39.9c0,2.5,2.1,4.6,4.6,4.6c2.5,0,4.6-2.1,4.6-4.6V105z M155.2,105c0-2.5-2.1-4.6-4.6-4.6
		s-4.6,2.1-4.6,4.6v39.9c0,2.5,2.1,4.6,4.6,4.6s4.6-2.1,4.6-4.6V105z"/>
	<path class="st0" d="M63.2,100.4v18.4c-22,0-39.9,17.9-39.9,39.9v21.5l-9.2-9.2l-9.2,9.2v-21.5C4.9,126.5,31,100.4,63.2,100.4z"/>
	<path class="st0" d="M207.3,158.7v33.7l-9.2-9.2l-9.2,9.2v-33.7c0-5.1-4.1-9.2-9.2-9.2v-18.4C195,131.1,207.3,143.4,207.3,158.7z"
		/>
	<path class="st0" d="M179.7,100.4v18.4c22,0,39.9,17.9,39.9,39.9v21.5l9.2-9.2l9.2,9.2v-21.5C238,126.5,211.9,100.4,179.7,100.4z"
		/>
</g>
<g>
</g>
<g>
</g>
<g>
</g>
<g>
</g>
<g>
</g>
<g>
</g>
</svg>
