<?xml version="1.0" encoding="utf-8"?>
<!-- Generator: Adobe Illustrator 18.1.1, SVG Export Plug-In . SVG Version: 6.00 Build 0)  -->
<!DOCTYPE svg PUBLIC "-//W3C//DTD SVG 1.1//EN" "http://www.w3.org/Graphics/SVG/1.1/DTD/svg11.dtd">
<svg version="1.1" id="Layer_1" xmlns="http://www.w3.org/2000/svg" xmlns:xlink="http://www.w3.org/1999/xlink" x="0px" y="0px"
	 viewBox="0 0 241.8 256" style="enable-background:new 0 0 241.8 256;" xml:space="preserve">
<style type="text/css">
	.st0{fill:#FFFFFF;}
</style>
<g>
	<circle class="st0" cx="167.8" cy="66.5" r="5.4"/>
	<circle class="st0" cx="74" cy="66.5" r="5.4"/>
	<path class="st0" d="M180.5,53.7L180.5,53.7l-5.6-5.7l19.7-19.7c2.8-2.8,2.8-7.4,0-10.2c-2.8-2.8-7.4-2.8-10.2,0l-19.7,19.7l-31-31
		l-0.1,0.1c-3.3-3.2-7.7-5.2-12.7-5.2c-5,0-9.4,2-12.7,5.2l-0.1-0.1l-31,31L57.4,18c-2.8-2.8-7.4-2.8-10.2,0s-2.8,7.4,0,10.2
		l19.7,19.7l-5.7,5.7l0.1,0.1c0,0,0,0-0.1,0c-7,7-7,18.5,0,25.5c3.5,3.5,8.1,5.3,12.8,5.3v18h93.8v-18c10,0,18-8.1,18-18
		C185.8,61.4,183.8,56.9,180.5,53.7z M74,77.3c-6,0-10.8-4.9-10.8-10.8S68,55.6,74,55.6c6,0,10.8,4.9,10.8,10.8S80,77.3,74,77.3z
		 M120.9,30.4c-6,0-10.8-4.9-10.8-10.8s4.9-10.8,10.8-10.8s10.8,4.9,10.8,10.8S126.9,30.4,120.9,30.4z M167.8,77.3
		c-6,0-10.8-4.9-10.8-10.8s4.9-10.8,10.8-10.8c6,0,10.8,4.9,10.8,10.8S173.8,77.3,167.8,77.3z"/>
	<circle class="st0" cx="120.9" cy="19.6" r="5.4"/>
	<path class="st0" d="M63.2,243.2c0,6,4.8,10.8,10.8,10.8s10.8-4.8,10.8-10.8v-36.1H63.2V243.2z"/>
	<path class="st0" d="M157,243.2c0,6,4.8,10.8,10.8,10.8s10.8-4.8,10.8-10.8v-36.1H157V243.2z"/>
	<path class="st0" d="M110.1,243.2c0,6,4.8,10.8,10.8,10.8s10.8-4.8,10.8-10.8v-36.1h-21.6V243.2z"/>
	<path class="st0" d="M171.4,109.7h-101c-4,0-7.2,3.2-7.2,7.2v83h115.5v-83C178.6,113,175.4,109.7,171.4,109.7z M92,160.3
		c-4,0-7.2-3.2-7.2-7.2c0-4,3.2-7.2,7.2-7.2s7.2,3.2,7.2,7.2C99.2,157,96,160.3,92,160.3z M120.9,160.3c-4,0-7.2-3.2-7.2-7.2
		c0-4,3.2-7.2,7.2-7.2s7.2,3.2,7.2,7.2C128.1,157,124.9,160.3,120.9,160.3z M149.8,160.3c-4,0-7.2-3.2-7.2-7.2c0-4,3.2-7.2,7.2-7.2
		c4,0,7.2,3.2,7.2,7.2C157,157,153.7,160.3,149.8,160.3z"/>
	<path class="st0" d="M30.7,117V91.7l-10.8,10.8L9,91.7V117c0,25.9,21,46.9,46.9,46.9v-21.6C42,142.2,30.7,130.9,30.7,117z"/>
	<path class="st0" d="M221.9,102.5l-10.8-10.8V117c0,13.9-11.3,25.3-25.3,25.3v21.6c25.9,0,46.9-21,46.9-46.9V91.7L221.9,102.5z"/>
</g>
<g>
</g>
<g>
</g>
<g>
</g>
<g>
</g>
<g>
</g>
<g>
</g>
</svg>
